# xmcd
#
# Track frame offsets:
#	150
#	18002
#	32852
#	45829
#	67504
#
# Disc length: 1084 seconds
#
# Revision: 0
# Processed by: cddbd v1.4PL0 Copyright (c) Steve Scherf et al.
# Submitted via: dBpowerAMP V4.0
#
DISCID=28043a05
DTITLE=Helena Kameka - Inside Out
DYEAR=1900
DGENRE=Gospel
TTITLE0=You Be The Captain
TTITLE1=Inside Out
TTITLE2=The Party
TTITLE3=Anything But The Lord
TTITLE4=Coming Back For Me
EXTD=
EXTT0=
EXTT1=
EXTT2=
EXTT3=
EXTT4=
PLAYORDER=
